<svg xmlns="http://www.w3.org/2000/svg" viewBox="0 0 1042.23 921.29"><defs><style>.cls-1{fill:none;stroke:#000;stroke-miterlimit:10;stroke-width:3px;}</style></defs><title>Asset 1</title><g id="Layer_2" data-name="Layer 2"><g id="Layer_1-2" data-name="Layer 1"><rect class="cls-1" x="91.04" y="31.35" width="859.56" height="474.55"/><rect class="cls-1" x="56.65" y="1.5" width="927.97" height="593.56"/><rect class="cls-1" x="330.4" y="595.06" width="380.24" height="26.86"/><rect class="cls-1" x="192.51" y="621.92" width="656.01" height="42.98"/><rect class="cls-1" x="1.5" y="664.9" width="1039.23" height="254.88"/><rect class="cls-1" x="31.35" y="694.75" width="29.85" height="29.85"/><rect class="cls-1" x="31.35" y="796.22" width="14.92" height="123.56"/><rect class="cls-1" x="61.19" y="796.22" width="14.92" height="123.56"/><rect class="cls-1" x="91.04" y="796.22" width="14.92" height="123.56"/><rect class="cls-1" x="120.88" y="796.22" width="14.92" height="123.56"/><rect class="cls-1" x="150.73" y="796.22" width="14.92" height="123.56"/><rect class="cls-1" x="180.57" y="796.22" width="14.92" height="123.56"/><rect class="cls-1" x="210.42" y="796.22" width="14.92" height="123.56"/><rect class="cls-1" x="240.27" y="796.22" width="14.92" height="123.56"/><rect class="cls-1" x="270.11" y="796.22" width="14.92" height="123.56"/><rect class="cls-1" x="299.96" y="796.22" width="14.92" height="123.56"/><rect class="cls-1" x="91.04" y="694.75" width="29.85" height="29.85"/><rect class="cls-1" x="608.19" y="694.75" width="402.69" height="82.67"/><polygon class="cls-1" points="996.29 719.55 877.95 719.55 877.95 711.81 741.13 711.81 741.13 719.55 622.78 719.55 622.78 732.53 741.13 732.53 741.13 740.27 877.95 740.27 877.95 732.53 996.29 732.53 996.29 719.55"/><rect class="cls-1" x="899.84" y="746.51" width="96.46" height="18.48"/><rect class="cls-1" x="608.19" y="807.27" width="402.69" height="82.67"/><polygon class="cls-1" points="996.29 832.07 877.95 832.07 877.95 824.33 741.13 824.33 741.13 832.07 622.78 832.07 622.78 845.05 741.13 845.05 741.13 852.79 877.95 852.79 877.95 845.05 996.29 845.05 996.29 832.07"/><rect class="cls-1" x="899.84" y="859.03" width="96.46" height="18.48"/><circle class="cls-1" cx="925.16" cy="551.27" r="22.9"/></g></g></svg>