<svg id="Layer_1" data-name="Layer 1" xmlns="http://www.w3.org/2000/svg" viewBox="0 0 468.85 123.03"><defs><style>.cls-1{fill:#4d4d4d;}.cls-2{fill:#ccc;}.cls-3{fill:#fff;}</style></defs><title>logo-final</title><polygon class="cls-1" points="337.9 50.69 319.03 50.86 328.44 81.22 337.9 50.69"/><path class="cls-1" d="M175.32,61.63c0,14.73,7.84,24.86,19.73,24.86,12.3,0,19.74-10.13,19.74-24.86a36.1,36.1,0,0,0-1.27-9.79l-37,.34A35.09,35.09,0,0,0,175.32,61.63Z"/><path class="cls-1" d="M372,76.09c0,6.49,4.05,10.4,11.21,10.4a19.35,19.35,0,0,0,13.38-5q5.68-5.05,5.68-15.81V64.06H390.06C378.58,64.06,372,68.38,372,76.09Z"/><path class="cls-1" d="M247.35,53.79h37.44c-.19-.9-.42-1.76-.68-2.61l-36.19.34C247.71,52.26,247.52,53,247.35,53.79Z"/><path class="cls-1" d="M102.62,61.63a29,29,0,0,0,5.54,17.57c3.78,4.86,8.92,7.29,15.54,7.29s11.76-2.43,15.41-7.29a28.24,28.24,0,0,0,5.67-17.57,30.23,30.23,0,0,0-1.34-9.14l-39.6.36A31,31,0,0,0,102.62,61.63Z"/><path class="cls-1" d="M440.07,49.74V95.68H428.72V49.84l-15.2.14c0,.72.06,1.44.06,2.19V95.68h-8.92l-1.89-9.59c-5,7.16-12,10.68-21.35,10.68-12.3,0-21.09-6.76-21.09-20.68,0-14.46,11.76-22.3,30.82-22.3h11.08v-3c0-.25,0-.49,0-.73l-53.09.49-14.86,45.1H322.63L307.9,51,296,51.07a39.2,39.2,0,0,1,.73,7.72v5.27h-50c.67,13.38,7.43,22.43,19.19,22.43,9.6,0,15-4.19,18.92-13l10,4.32c-6.35,13.38-14.87,18.93-28.92,18.93-9.87,0-17.43-3.38-22.84-10.14s-8-15.14-8-25a46.33,46.33,0,0,1,1-10l-10.91.1v44H213.84V87.31c-3.38,5.27-11.76,9.46-19.87,9.46-19.46,0-30.27-14.06-30.27-35.14a53.49,53.49,0,0,1,.78-9.34l-9.11.09a40.22,40.22,0,0,1,1,9.25c0,9.59-3,18-9.05,24.86S133.56,96.77,123.7,96.77,106,93.39,99.91,86.49A37,37,0,0,1,91,61.63,41.21,41.21,0,0,1,91.88,53l-53.6.49a39.79,39.79,0,0,0-.8,8.17c0,14.59,6.75,24.86,19.32,24.86q13.19,0,18.65-12.56l9.87,4c-5.54,12.57-15,18.79-28.52,18.79-9.86,0-17.57-3.38-23-10.14s-8-15.14-8-25a47.46,47.46,0,0,1,.67-8.06L3,53.79,0,123l464.84-1.29,4-72.37Z"/><path class="cls-2" d="M56.8,36.76q13.19,0,18.65,12.57l9.87-4.06c-5.54-12.56-15-18.78-28.52-18.78-9.86,0-17.57,3.38-23,10.27a37,37,0,0,0-7.31,16.81l11.76-.11C40.41,43.35,46.74,36.76,56.8,36.76Z"/><path class="cls-2" d="M108.16,44.19c3.78-5,8.92-7.43,15.54-7.43s11.76,2.43,15.41,7.43a26,26,0,0,1,4.33,8.3l11.93-.11a35,35,0,0,0-8-15.48C141.4,30,133.56,26.49,123.7,26.49S106,30,99.91,36.9a35.64,35.64,0,0,0-8,16.07l12-.12A26.86,26.86,0,0,1,108.16,44.19Z"/><path class="cls-2" d="M195.05,36.76c9.33,0,15.86,5.83,18.47,15.08l11.67-.11V0H213.84V35.68c-1.22-2.16-3.92-4.19-7.84-6.22a26,26,0,0,0-12-3c-16.42,0-26.68,10-29.49,25.8l12.07-.11C179.19,42.74,185.92,36.76,195.05,36.76Z"/><path class="cls-2" d="M265.87,36.76c9.49,0,15.6,5.64,18.24,14.42L296,51.07A31.59,31.59,0,0,0,288.44,36c-5.41-6.35-13-9.46-22.57-9.46-9.87,0-17.43,3.38-22.84,10.27a36.62,36.62,0,0,0-6.93,14.87l11.82-.11C250.48,42.43,256.49,36.76,265.87,36.76Z"/><polygon class="cls-2" points="311.82 27.57 300.19 27.57 307.9 50.96 319.03 50.86 311.82 27.57"/><polygon class="cls-2" points="356.69 27.57 345.06 27.57 337.9 50.69 349.11 50.58 356.69 27.57"/><path class="cls-2" d="M387.36,26.49c-12.84,0-22.43,7.16-24.19,18.65l10,2.3c1.49-6.63,7-10.68,14.19-10.68,9.6,0,14.58,4.49,14.84,13.33L413.52,50C412.67,34.17,402.49,26.49,387.36,26.49Z"/><polygon class="cls-2" points="440.07 0 428.71 0 428.71 49.84 440.07 49.74 440.07 0"/><path class="cls-3" d="M33.83,86.63c5.4,6.76,13.11,10.14,23,10.14,13.52,0,23-6.22,28.52-18.79l-9.87-4Q70,86.48,56.8,86.49c-12.57,0-19.32-10.27-19.32-24.86a39.79,39.79,0,0,1,.8-8.17l-11.76.11a47.46,47.46,0,0,0-.67,8.06C25.85,71.49,28.56,79.74,33.83,86.63Z"/><path class="cls-3" d="M99.91,86.49c6.08,6.9,13.92,10.28,23.79,10.28s17.7-3.38,23.65-10.28,9.05-15.27,9.05-24.86a40.22,40.22,0,0,0-1-9.25l-11.93.11a30.23,30.23,0,0,1,1.34,9.14,28.24,28.24,0,0,1-5.67,17.57q-5.48,7.29-15.41,7.29c-6.62,0-11.76-2.43-15.54-7.29a29,29,0,0,1-5.54-17.57,31,31,0,0,1,1.22-8.78l-12,.12A41.21,41.21,0,0,0,91,61.63,37,37,0,0,0,99.91,86.49Z"/><path class="cls-3" d="M194,96.77c8.11,0,16.49-4.19,19.87-9.46v8.37h11.35v-44l-11.67.11a36.1,36.1,0,0,1,1.27,9.79c0,14.73-7.44,24.86-19.74,24.86-11.89,0-19.73-10.13-19.73-24.86a35.09,35.09,0,0,1,1.23-9.45l-12.07.11a53.49,53.49,0,0,0-.78,9.34C163.7,82.71,174.51,96.77,194,96.77Z"/><path class="cls-3" d="M243,86.63c5.41,6.76,13,10.14,22.84,10.14,14.05,0,22.57-5.55,28.92-18.93l-10-4.32c-3.92,8.78-9.32,13-18.92,13-11.76,0-18.52-9-19.19-22.43h50V58.79a39.2,39.2,0,0,0-.73-7.72l-11.84.11c.26.85.49,1.71.68,2.61H247.35c.17-.78.36-1.53.57-2.27l-11.82.11a46.33,46.33,0,0,0-1,10C235.05,71.49,237.76,79.74,243,86.63Z"/><polygon class="cls-3" points="334.25 95.69 349.11 50.58 337.9 50.69 328.44 81.22 319.03 50.86 307.9 50.96 322.63 95.69 334.25 95.69"/><path class="cls-3" d="M402.23,53.79H391.15c-19.06,0-30.82,7.84-30.82,22.3,0,13.92,8.79,20.68,21.09,20.68,9.32,0,16.35-3.52,21.35-10.68l1.89,9.59h8.92V52.17c0-.75,0-1.47-.06-2.19l-11.32.11c0,.24,0,.48,0,.73Zm0,11.89q0,10.74-5.68,15.81a19.35,19.35,0,0,1-13.38,5C376,86.49,372,82.58,372,76.09c0-7.71,6.62-12,18.1-12h12.17Z"/><polygon class="cls-3" points="440.07 95.69 440.07 49.74 428.71 49.84 428.71 95.69 440.07 95.69"/></svg>